<svg width="42" height="42" viewBox="0 0 42 42" fill="none" xmlns="http://www.w3.org/2000/svg">
<path d="M37.8 31.1302V26.2498C37.8 24.3004 37.0257 22.4309 35.6473 21.0525C34.2689 19.6741 32.3994 18.8998 30.45 18.8998H26.25C25.4146 18.8998 24.6134 18.5679 24.0226 17.9772C23.4319 17.3864 23.1 16.5852 23.1 15.7498V10.8694C23.9762 10.4692 24.719 9.82582 25.2402 9.01576C25.7614 8.2057 26.039 7.26301 26.04 6.29977C26.04 4.96307 25.509 3.68113 24.5638 2.73595C23.6187 1.79076 22.3367 1.25977 21 1.25977C19.6633 1.25977 18.3814 1.79076 17.4362 2.73595C16.491 3.68113 15.96 4.96307 15.96 6.29977C15.96 8.33047 17.1696 10.0714 18.9 10.8694V15.7498C18.9 16.5852 18.5682 17.3864 17.9774 17.9772C17.3867 18.5679 16.5855 18.8998 15.75 18.8998H11.55C9.60069 18.8998 7.73119 19.6741 6.3528 21.0525C4.97441 22.4309 4.20003 24.3004 4.20003 26.2498V31.1302C3.15375 31.6073 2.30247 32.4285 1.78795 33.4569C1.27342 34.4853 1.1267 35.659 1.37221 36.7824C1.61771 37.9058 2.24064 38.9113 3.13725 39.6313C4.03387 40.3514 5.15008 40.7426 6.30003 40.7398C7.4488 40.7403 8.56322 40.348 9.45822 39.6278C10.3532 38.9076 10.975 37.903 11.2202 36.7807C11.4655 35.6584 11.3195 34.486 10.8065 33.4582C10.2935 32.4303 9.44433 31.6088 8.40003 31.1302V26.2498C8.40003 25.4143 8.73191 24.6131 9.32265 24.0224C9.91338 23.4316 10.7146 23.0998 11.55 23.0998H15.75C16.8819 23.0998 17.9424 22.8226 18.9 22.3648V31.1302C17.8537 31.6073 17.0025 32.4285 16.4879 33.4569C15.9734 34.4853 15.8267 35.659 16.0722 36.7824C16.3177 37.9058 16.9406 38.9113 17.8373 39.6313C18.7339 40.3514 19.8501 40.7426 21 40.7398C22.1488 40.7403 23.2632 40.348 24.1582 39.6278C25.0532 38.9076 25.675 37.903 25.9202 36.7807C26.1655 35.6584 26.0195 34.486 25.5065 33.4582C24.9935 32.4303 24.1443 31.6088 23.1 31.1302V22.3648C24.0576 22.8226 25.1181 23.0998 26.25 23.0998H30.45C31.2855 23.0998 32.0867 23.4316 32.6774 24.0224C33.2682 24.6131 33.6 25.4143 33.6 26.2498V31.1302C32.7239 31.5303 31.981 32.1737 31.4598 32.9838C30.9387 33.7938 30.661 34.7365 30.66 35.6998C30.66 37.0365 31.191 38.3184 32.1362 39.2636C33.0814 40.2088 34.3633 40.7398 35.7 40.7398C37.0367 40.7398 38.3187 40.2088 39.2638 39.2636C40.209 38.3184 40.74 37.0365 40.74 35.6998C40.74 33.6691 39.5325 31.9282 37.8 31.1302ZM21 3.39127C21.7709 3.39127 22.5101 3.69747 23.0552 4.24253C23.6002 4.78759 23.9064 5.52684 23.9064 6.29767C23.9064 7.06849 23.6002 7.80774 23.0552 8.3528C22.5101 8.89786 21.7709 9.20407 21 9.20407C20.2292 9.20407 19.49 8.89786 18.9449 8.3528C18.3998 7.80774 18.0936 7.06849 18.0936 6.29767C18.0936 5.52684 18.3998 4.78759 18.9449 4.24253C19.49 3.69747 20.2292 3.39127 21 3.39127ZM6.30003 38.6083C5.91808 38.6083 5.53987 38.533 5.187 38.3869C4.83412 38.2407 4.51349 38.0265 4.24341 37.7564C3.97333 37.4863 3.75909 37.1657 3.61293 36.8128C3.46676 36.4599 3.39153 36.0817 3.39153 35.6998C3.39153 35.3178 3.46676 34.9396 3.61293 34.5867C3.75909 34.2339 3.97333 33.9132 4.24341 33.6431C4.51349 33.3731 4.83412 33.1588 5.187 33.0127C5.53987 32.8665 5.91808 32.7913 6.30003 32.7913C7.07141 32.7913 7.8112 33.0977 8.35665 33.6431C8.9021 34.1886 9.20853 34.9284 9.20853 35.6998C9.20853 36.4711 8.9021 37.2109 8.35665 37.7564C7.8112 38.3018 7.07141 38.6083 6.30003 38.6083ZM21 38.6083C20.6181 38.6083 20.2399 38.533 19.887 38.3869C19.5341 38.2407 19.2135 38.0265 18.9434 37.7564C18.6733 37.4863 18.4591 37.1657 18.3129 36.8128C18.1668 36.4599 18.0915 36.0817 18.0915 35.6998C18.0915 35.3178 18.1668 34.9396 18.3129 34.5867C18.4591 34.2339 18.6733 33.9132 18.9434 33.6431C19.2135 33.3731 19.5341 33.1588 19.887 33.0127C20.2399 32.8665 20.6181 32.7913 21 32.7913C21.7714 32.7913 22.5112 33.0977 23.0567 33.6431C23.6021 34.1886 23.9085 34.9284 23.9085 35.6998C23.9085 36.4711 23.6021 37.2109 23.0567 37.7564C22.5112 38.3018 21.7714 38.6083 21 38.6083ZM35.7 38.6083C35.3181 38.6083 34.9399 38.533 34.587 38.3869C34.2341 38.2407 33.9135 38.0265 33.6434 37.7564C33.3733 37.4863 33.1591 37.1657 33.0129 36.8128C32.8668 36.4599 32.7915 36.0817 32.7915 35.6998C32.7915 35.3178 32.8668 34.9396 33.0129 34.5867C33.1591 34.2339 33.3733 33.9132 33.6434 33.6431C33.9135 33.3731 34.2341 33.1588 34.587 33.0127C34.9399 32.8665 35.3181 32.7913 35.7 32.7913C36.4714 32.7913 37.2112 33.0977 37.7567 33.6431C38.3021 34.1886 38.6085 34.9284 38.6085 35.6998C38.6085 36.4711 38.3021 37.2109 37.7567 37.7564C37.2112 38.3018 36.4714 38.6083 35.7 38.6083Z" fill="#024132"/>
</svg>
