<svg width="42" height="42" viewBox="0 0 42 42" fill="none" xmlns="http://www.w3.org/2000/svg">
<g clip-path="url(#clip0_1844_28556)">
<path d="M0 6.2998H42V31.4998H40.425C40.425 27.7408 37.359 24.6748 33.6 24.6748C30.849 24.6748 28.518 26.3338 27.426 28.6858C26.901 28.4758 26.334 28.3498 25.725 28.3498C23.667 28.3498 21.945 29.6728 21.294 31.4998H0V6.2998ZM17.577 12.8308C17.451 13.1458 17.367 13.4818 17.346 13.8178C17.325 14.1538 17.325 14.5108 17.367 14.8678L17.409 15.0358C17.43 15.1618 17.451 15.3298 17.514 15.5188C17.556 15.7288 17.64 15.9388 17.724 16.1698C17.787 16.4008 17.913 16.6318 18.039 16.8628C18.186 17.1148 18.354 17.3248 18.522 17.5138C18.69 17.7028 18.9 17.8708 19.173 17.9968C19.425 18.1228 19.698 18.1858 20.013 18.1858C20.307 18.1858 20.58 18.1228 20.832 17.9968C21.084 17.8708 21.294 17.7028 21.462 17.5348C21.651 17.3458 21.798 17.1148 21.924 16.8628C22.071 16.6108 22.176 16.3798 22.26 16.1698C22.344 15.9598 22.407 15.7498 22.449 15.5188C22.512 15.2878 22.533 15.1408 22.554 15.0568C22.575 14.9728 22.575 14.9098 22.575 14.8678C22.68 14.2588 22.638 13.6918 22.491 13.1458C22.344 12.5998 22.05 12.1378 21.63 11.7598C21.189 11.3818 20.643 11.1928 19.971 11.1928C19.572 11.1928 19.215 11.2558 18.879 11.4028C18.564 11.5498 18.291 11.7388 18.081 11.9908C17.892 12.2218 17.724 12.5158 17.577 12.8308ZM26.985 25.5148V23.1208C26.985 22.4278 26.775 21.7348 26.376 21.0628C25.977 20.3908 25.431 19.8238 24.759 19.4038C24.087 18.9628 23.373 18.7528 22.617 18.7528L20.013 20.5168L17.325 18.7948C16.548 18.7948 15.813 19.0048 15.141 19.4248C14.49 19.8448 13.965 20.3908 13.587 21.0418C13.209 21.7138 13.02 22.4068 13.02 23.1208V25.5148L13.398 25.6198C13.65 25.7038 14.007 25.7878 14.469 25.9138C14.952 26.0188 15.456 26.1238 16.023 26.2288C16.569 26.3338 17.22 26.4178 17.934 26.5018C18.648 26.5648 19.341 26.6068 20.013 26.6068C20.643 26.6068 21.336 26.5648 22.071 26.5018C22.785 26.4178 23.415 26.3338 23.94 26.2288C24.465 26.1448 24.99 26.0188 25.536 25.8928L26.586 25.6408C26.754 25.5988 26.88 25.5568 26.985 25.5148ZM33.6 25.7248C36.792 25.7248 39.375 28.3078 39.375 31.4998C39.375 34.6918 36.792 37.2748 33.6 37.2748C32.067 37.2748 30.702 36.6448 29.673 35.6578C30.3572 34.6236 30.6044 33.3606 30.3604 32.1448C30.1164 30.9289 29.4012 29.859 28.371 29.1688C29.274 27.1528 31.248 25.7248 33.6 25.7248ZM22.05 33.0748C22.05 31.0588 23.709 29.3998 25.725 29.3998C27.741 29.3998 29.4 31.0588 29.4 33.0748C29.4 35.0908 27.741 36.7498 25.725 36.7498C23.709 36.7498 22.05 35.0908 22.05 33.0748Z" fill="#024132"/>
</g>
<defs>
<clipPath id="clip0_1844_28556">
<rect width="42" height="42" fill="white"/>
</clipPath>
</defs>
</svg>
