<svg width="35" height="25" viewBox="0 0 35 25" fill="none" xmlns="http://www.w3.org/2000/svg">
<path fill-rule="evenodd" clip-rule="evenodd" d="M5.00004 0C3.89497 0 2.83516 0.438987 2.05376 1.22039C1.27236 2.00179 0.833374 3.0616 0.833374 4.16667V12.5C0.833374 13.6051 1.27236 14.6649 2.05376 15.4463C2.83516 16.2277 3.89497 16.6667 5.00004 16.6667V4.16667H25.8334C25.8334 3.0616 25.3944 2.00179 24.613 1.22039C23.8316 0.438987 22.7718 0 21.6667 0H5.00004ZM9.16671 12.5C9.16671 11.3949 9.60569 10.3351 10.3871 9.55372C11.1685 8.77232 12.2283 8.33333 13.3334 8.33333H30C31.1051 8.33333 32.1649 8.77232 32.9463 9.55372C33.7277 10.3351 34.1667 11.3949 34.1667 12.5V20.8333C34.1667 21.9384 33.7277 22.9982 32.9463 23.7796C32.1649 24.561 31.1051 25 30 25H13.3334C12.2283 25 11.1685 24.561 10.3871 23.7796C9.60569 22.9982 9.16671 21.9384 9.16671 20.8333V12.5ZM21.6667 20.8333C22.7718 20.8333 23.8316 20.3943 24.613 19.6129C25.3944 18.8315 25.8334 17.7717 25.8334 16.6667C25.8334 15.5616 25.3944 14.5018 24.613 13.7204C23.8316 12.939 22.7718 12.5 21.6667 12.5C20.5616 12.5 19.5018 12.939 18.7204 13.7204C17.939 14.5018 17.5 15.5616 17.5 16.6667C17.5 17.7717 17.939 18.8315 18.7204 19.6129C19.5018 20.3943 20.5616 20.8333 21.6667 20.8333Z" fill="#8A8D8C" fill-opacity="0.29"/>
</svg>
