<svg width="165" height="31" viewBox="0 0 165 31" fill="none" xmlns="http://www.w3.org/2000/svg">
<path fill-rule="evenodd" clip-rule="evenodd" d="M5.33877 5.35815C4.65597 5.35815 4.00114 5.62939 3.51833 6.1122C3.03552 6.59501 2.76428 7.24984 2.76428 7.93264V13.0816C2.76428 13.7644 3.03552 14.4192 3.51833 14.902C4.00114 15.3848 4.65597 15.6561 5.33877 15.6561V7.93264H18.2112C18.2112 7.24984 17.9399 6.59501 17.4571 6.1122C16.9743 5.62939 16.3195 5.35815 15.6367 5.35815H5.33877ZM7.91325 13.0816C7.91325 12.3988 8.18449 11.744 8.6673 11.2612C9.15011 10.7784 9.80494 10.5071 10.4877 10.5071H20.7857C21.4685 10.5071 22.1233 10.7784 22.6061 11.2612C23.0889 11.744 23.3601 12.3988 23.3601 13.0816V18.2306C23.3601 18.9134 23.0889 19.5682 22.6061 20.051C22.1233 20.5338 21.4685 20.8051 20.7857 20.8051H10.4877C9.80494 20.8051 9.15011 20.5338 8.6673 20.051C8.18449 19.5682 7.91325 18.9134 7.91325 18.2306V13.0816ZM15.6367 18.2306C16.3195 18.2306 16.9743 17.9593 17.4571 17.4765C17.9399 16.9937 18.2112 16.3389 18.2112 15.6561C18.2112 14.9733 17.9399 14.3185 17.4571 13.8357C16.9743 13.3528 16.3195 13.0816 15.6367 13.0816C14.9539 13.0816 14.2991 13.3528 13.8163 13.8357C13.3335 14.3185 13.0622 14.9733 13.0622 15.6561C13.0622 16.3389 13.3335 16.9937 13.8163 17.4765C14.2991 17.9593 14.9539 18.2306 15.6367 18.2306Z" fill="#046951"/>
<path d="M28.6354 23.384V6.50478H33.1366L39.1926 15.9162V6.50478H43.6938V23.384H39.1926L33.1366 13.9726V23.384H28.6354ZM50.7962 23.7114C49.8414 23.7114 48.9718 23.4727 48.1875 22.9953C47.4033 22.5111 46.7792 21.8496 46.3155 21.0107C45.8517 20.165 45.6199 19.2034 45.6199 18.1259C45.6199 17.0824 45.8381 16.1447 46.2746 15.3127C46.7179 14.4738 47.3282 13.8089 48.1057 13.3179C48.8832 12.8268 49.78 12.5813 50.7962 12.5813C51.3963 12.5813 51.9726 12.67 52.525 12.8473C53.0842 13.0178 53.5719 13.2633 53.9879 13.5838V12.9087H58.2435V23.384H53.9879V22.5656C53.49 22.9476 52.9751 23.234 52.4432 23.425C51.918 23.6159 51.369 23.7114 50.7962 23.7114ZM52.1056 20.1105C52.4875 20.1105 52.8251 20.0252 53.1183 19.8547C53.4184 19.6842 53.6503 19.4524 53.814 19.1591C53.9845 18.859 54.0697 18.5214 54.0697 18.1463C54.0697 17.7644 53.9845 17.4268 53.814 17.1336C53.6435 16.8403 53.4116 16.6085 53.1183 16.438C52.8251 16.2675 52.4875 16.1822 52.1056 16.1822C51.7305 16.1822 51.3929 16.2675 51.0928 16.438C50.7927 16.6085 50.554 16.8437 50.3767 17.1438C50.2062 17.4371 50.121 17.7713 50.121 18.1463C50.121 18.5214 50.2062 18.859 50.3767 19.1591C50.5472 19.4524 50.7825 19.6842 51.0826 19.8547C51.3827 20.0252 51.7237 20.1105 52.1056 20.1105ZM60.6459 28.7036V12.9087H64.9015V13.5838C65.3244 13.2633 65.8052 13.0178 66.3439 12.8473C66.8827 12.67 67.4488 12.5813 68.0421 12.5813C69.0446 12.5813 69.938 12.8234 70.7223 13.3076C71.5134 13.7918 72.134 14.4534 72.5841 15.2922C73.0411 16.1311 73.2695 17.0824 73.2695 18.1463C73.2695 19.1966 73.0445 20.1412 72.5944 20.98C72.1443 21.8189 71.5305 22.4838 70.753 22.9748C69.9823 23.4659 69.1128 23.7114 68.1444 23.7114C67.5647 23.7114 66.9986 23.6125 66.4462 23.4147C65.9006 23.2238 65.3857 22.9407 64.9015 22.5656V28.7036H60.6459ZM66.8145 20.1105C67.1964 20.1105 67.534 20.0286 67.8273 19.865C68.1205 19.6945 68.349 19.4626 68.5127 19.1693C68.6832 18.8761 68.7684 18.5419 68.7684 18.1668C68.7684 17.7849 68.6797 17.4473 68.5024 17.1541C68.3319 16.854 68.1001 16.6187 67.8068 16.4482C67.5135 16.2709 67.1794 16.1822 66.8043 16.1822C66.4292 16.1822 66.0916 16.2709 65.7915 16.4482C65.4914 16.6187 65.2527 16.854 65.0754 17.1541C64.9049 17.4473 64.8197 17.7815 64.8197 18.1566C64.8197 18.5317 64.9049 18.8693 65.0754 19.1693C65.2459 19.4626 65.4812 19.6945 65.7813 19.865C66.0882 20.0286 66.4326 20.1105 66.8145 20.1105ZM74.8126 23.384V12.9087H79.0683V23.384H74.8126ZM76.9405 10.6683C76.4903 10.6683 76.0777 10.5592 75.7026 10.341C75.3276 10.1159 75.0275 9.81584 74.8024 9.44075C74.5842 9.06565 74.4751 8.65305 74.4751 8.20293C74.4751 7.75282 74.5842 7.34363 74.8024 6.97535C75.0275 6.60026 75.3276 6.30359 75.7026 6.08535C76.0777 5.8603 76.4903 5.74777 76.9405 5.74777C77.3906 5.74777 77.7998 5.8603 78.168 6.08535C78.5431 6.30359 78.8398 6.60026 79.058 6.97535C79.2831 7.34363 79.3956 7.75282 79.3956 8.20293C79.3956 8.65305 79.2831 9.06565 79.058 9.44075C78.8398 9.81584 78.5431 10.1159 78.168 10.341C77.7998 10.5592 77.3906 10.6683 76.9405 10.6683ZM88.7505 23.7114C87.5979 23.7114 86.5238 23.4932 85.5281 23.0567C84.5324 22.6134 83.6594 21.9962 82.9093 21.2051C82.1591 20.414 81.5726 19.4865 81.1497 18.4226C80.7337 17.3518 80.5257 16.189 80.5257 14.9342C80.5257 13.7134 80.7303 12.5745 81.1395 11.5174C81.5487 10.4535 82.1318 9.52599 82.8888 8.73489C83.6458 7.93696 84.5494 7.31635 85.5997 6.87305C86.65 6.42294 87.8162 6.19788 89.0983 6.19788C89.7462 6.19788 90.4316 6.26267 91.1545 6.39225C91.8842 6.51501 92.6037 6.70938 93.313 6.97535C94.0291 7.24133 94.6872 7.58232 95.2874 7.99834L93.2209 11.4969C92.6617 11.0741 92.0036 10.757 91.2466 10.5456C90.4896 10.3273 89.8008 10.2182 89.1802 10.2182C88.5595 10.2182 88.014 10.3239 87.5434 10.5353C87.0728 10.7399 86.6773 11.04 86.3567 11.4356C86.0362 11.8243 85.7941 12.2983 85.6304 12.8575C85.4735 13.4099 85.3951 14.0339 85.3951 14.7296C85.3951 15.4934 85.4872 16.1754 85.6713 16.7755C85.8555 17.3689 86.1078 17.8736 86.4283 18.2896C86.7557 18.7056 87.1376 19.0227 87.5741 19.2409C88.0174 19.4524 88.4948 19.5581 89.0062 19.5581C89.4154 19.5581 89.7974 19.4933 90.152 19.3637C90.5134 19.2341 90.8272 19.0568 91.0931 18.8317C91.3659 18.5999 91.5773 18.3373 91.7274 18.0441C91.8842 17.7508 91.9627 17.4439 91.9627 17.1234V17.1029H88.7505V13.6452H96.5456V16.9188C96.5456 17.8326 96.3376 18.6988 95.9216 19.5171C95.5124 20.3355 94.9464 21.0619 94.2235 21.6961C93.5006 22.3235 92.6685 22.818 91.7274 23.1794C90.7931 23.5341 89.8008 23.7114 88.7505 23.7114ZM103.392 23.7114C102.192 23.7114 101.107 23.4761 100.139 23.0055C99.1774 22.5281 98.4136 21.8734 97.8476 21.0414C97.2883 20.2025 97.0087 19.2375 97.0087 18.1463C97.0087 17.0552 97.2883 16.0936 97.8476 15.2615C98.4136 14.4227 99.1774 13.768 100.139 13.2974C101.107 12.82 102.192 12.5813 103.392 12.5813C104.592 12.5813 105.673 12.82 106.635 13.2974C107.603 13.768 108.367 14.4227 108.926 15.2615C109.493 16.0936 109.776 17.0552 109.776 18.1463C109.776 19.2375 109.493 20.2025 108.926 21.0414C108.367 21.8734 107.603 22.5281 106.635 23.0055C105.673 23.4761 104.592 23.7114 103.392 23.7114ZM103.392 20.1105C103.74 20.1105 104.06 20.0286 104.354 19.865C104.647 19.6945 104.879 19.4626 105.049 19.1693C105.227 18.8761 105.315 18.5351 105.315 18.1463C105.315 17.7576 105.227 17.4166 105.049 17.1234C104.879 16.8233 104.647 16.5914 104.354 16.4277C104.06 16.2641 103.74 16.1822 103.392 16.1822C103.044 16.1822 102.724 16.2641 102.431 16.4277C102.137 16.5914 101.902 16.8233 101.725 17.1234C101.554 17.4166 101.469 17.7576 101.469 18.1463C101.469 18.5351 101.554 18.8761 101.725 19.1693C101.902 19.4626 102.137 19.6945 102.431 19.865C102.724 20.0286 103.044 20.1105 103.392 20.1105Z" fill="white"/>
<path d="M119.302 23.7114C118.027 23.7114 116.816 23.4863 115.67 23.0362C114.531 22.5793 113.522 21.9484 112.642 21.1437C111.763 20.3389 111.07 19.4114 110.566 18.3612C110.068 17.3041 109.819 16.172 109.819 14.9649C109.819 13.7577 110.071 12.6256 110.576 11.5686C111.081 10.5047 111.769 9.57032 112.642 8.76558C113.522 7.96083 114.531 7.3334 115.67 6.88328C116.809 6.42635 118.013 6.19788 119.281 6.19788C120.304 6.19788 121.287 6.3411 122.228 6.62754C123.176 6.90715 123.97 7.26179 124.611 7.69144L122.708 11.5379C122.34 11.2582 121.873 11.0366 121.307 10.8729C120.748 10.7024 120.171 10.6172 119.578 10.6172C118.896 10.6172 118.259 10.7263 117.665 10.9445C117.079 11.1628 116.56 11.4697 116.11 11.8652C115.667 12.254 115.319 12.7109 115.067 13.236C114.814 13.7612 114.688 14.334 114.688 14.9546C114.688 15.5752 114.814 16.1481 115.067 16.6733C115.319 17.1984 115.667 17.6587 116.11 18.0543C116.56 18.443 117.079 18.7465 117.665 18.9647C118.259 19.183 118.896 19.2921 119.578 19.2921C120.171 19.2921 120.748 19.2103 121.307 19.0466C121.873 18.8761 122.34 18.651 122.708 18.3714L124.611 22.2178C124.004 22.627 123.23 22.9782 122.289 23.2715C121.355 23.5648 120.359 23.7114 119.302 23.7114ZM129.763 23.7114C128.808 23.7114 127.938 23.4727 127.154 22.9953C126.37 22.5111 125.746 21.8496 125.282 21.0107C124.818 20.165 124.586 19.2034 124.586 18.1259C124.586 17.0824 124.805 16.1447 125.241 15.3127C125.684 14.4738 126.295 13.8089 127.072 13.3179C127.85 12.8268 128.746 12.5813 129.763 12.5813C130.363 12.5813 130.939 12.67 131.491 12.8473C132.051 13.0178 132.538 13.2633 132.954 13.5838V12.9087H137.21V23.384H132.954V22.5656C132.456 22.9476 131.942 23.234 131.41 23.425C130.884 23.6159 130.335 23.7114 129.763 23.7114ZM131.072 20.1105C131.454 20.1105 131.792 20.0252 132.085 19.8547C132.385 19.6842 132.617 19.4524 132.78 19.1591C132.951 18.859 133.036 18.5214 133.036 18.1463C133.036 17.7644 132.951 17.4268 132.78 17.1336C132.61 16.8403 132.378 16.6085 132.085 16.438C131.792 16.2675 131.454 16.1822 131.072 16.1822C130.697 16.1822 130.359 16.2675 130.059 16.438C129.759 16.6085 129.521 16.8437 129.343 17.1438C129.173 17.4371 129.087 17.7713 129.087 18.1463C129.087 18.5214 129.173 18.859 129.343 19.1591C129.514 19.4524 129.749 19.6842 130.049 19.8547C130.349 20.0252 130.69 20.1105 131.072 20.1105ZM142.673 23.7114C141.773 23.7114 140.958 23.6159 140.228 23.425C139.505 23.2408 138.881 22.9612 138.356 22.5861L140.034 19.6399C140.538 19.9536 141.012 20.1923 141.456 20.356C141.906 20.5197 142.315 20.6015 142.683 20.6015C142.833 20.6015 142.949 20.5879 143.031 20.5606C143.12 20.5333 143.184 20.4924 143.225 20.4378C143.266 20.3765 143.287 20.298 143.287 20.2025C143.287 20.0321 143.225 19.8991 143.103 19.8036C142.987 19.7013 142.796 19.5956 142.53 19.4865C142.264 19.3773 141.909 19.2273 141.466 19.0363C141.05 18.8522 140.658 18.6476 140.289 18.4226C139.928 18.1975 139.635 17.9111 139.41 17.5632C139.185 17.2154 139.072 16.7721 139.072 16.2334C139.072 15.5173 139.277 14.8864 139.686 14.3408C140.095 13.7953 140.665 13.369 141.394 13.0621C142.124 12.7552 142.966 12.6018 143.921 12.6018C144.405 12.6018 144.947 12.6495 145.548 12.745C146.155 12.8405 146.86 12.9973 147.665 13.2156L146.335 16.0185C145.292 15.623 144.501 15.4252 143.962 15.4252C143.696 15.4252 143.488 15.4661 143.338 15.548C143.195 15.6298 143.123 15.7287 143.123 15.8446C143.123 16.0083 143.249 16.1652 143.502 16.3152C143.761 16.4652 144.061 16.6016 144.402 16.7244C144.743 16.8472 145.04 16.9529 145.292 17.0415C145.756 17.1984 146.172 17.3928 146.54 17.6246C146.915 17.8565 147.212 18.1634 147.43 18.5453C147.655 18.9272 147.767 19.4285 147.767 20.0491C147.767 20.847 147.57 21.5188 147.174 22.0644C146.785 22.6032 146.213 23.0123 145.456 23.292C144.699 23.5716 143.771 23.7114 142.673 23.7114ZM149.423 23.384V5.78869H153.679V13.8907C154.163 13.4747 154.709 13.1542 155.316 12.9291C155.93 12.6972 156.55 12.5813 157.178 12.5813C157.976 12.5813 158.688 12.762 159.316 13.1235C159.95 13.4849 160.451 13.976 160.819 14.5966C161.188 15.2104 161.372 15.9094 161.372 16.6937V23.384H157.116V17.6144C157.116 17.0893 156.959 16.6698 156.646 16.3561C156.332 16.0356 155.916 15.8753 155.398 15.8753C155.057 15.8753 154.757 15.9469 154.497 16.0901C154.238 16.2334 154.037 16.4346 153.894 16.6937C153.751 16.9529 153.679 17.2598 153.679 17.6144V23.384H149.423Z" fill="#046951"/>
</svg>
