<svg width="42" height="42" viewBox="0 0 42 42" fill="none" xmlns="http://www.w3.org/2000/svg">
<g clip-path="url(#clip0_1844_28550)">
<path d="M2.8 8.3999C1.2488 8.3999 0 9.6487 0 11.1999V30.7999C0 32.3511 1.2488 33.5999 2.8 33.5999H39.2C40.7512 33.5999 42 32.3511 42 30.7999V11.1999C42 9.6487 40.7512 8.3999 39.2 8.3999H2.8ZM2.8 11.1999H7C7.27689 11.1999 7.54757 11.282 7.7778 11.4358C8.00803 11.5897 8.18747 11.8083 8.29343 12.0641C8.39939 12.32 8.42712 12.6015 8.3731 12.873C8.31908 13.1446 8.18574 13.3941 7.98995 13.5899C7.79416 13.7856 7.5447 13.919 7.27313 13.973C7.00155 14.027 6.72006 13.9993 6.46424 13.8933C6.20843 13.7874 5.98978 13.6079 5.83594 13.3777C5.68211 13.1475 5.6 12.8768 5.6 12.5999L4.2 13.9999C4.47689 13.9999 4.74757 14.082 4.9778 14.2358C5.20803 14.3897 5.38747 14.6083 5.49343 14.8641C5.59939 15.12 5.62712 15.4015 5.5731 15.673C5.51908 15.9446 5.38574 16.1941 5.18995 16.3899C4.99416 16.5856 4.7447 16.719 4.47313 16.773C4.20155 16.827 3.92006 16.7993 3.66424 16.6933C3.40843 16.5874 3.18978 16.4079 3.03594 16.1777C2.88211 15.9475 2.8 15.6768 2.8 15.3999V11.1999ZM21 11.1999C24.864 11.1999 28 15.5875 28 20.9999C28 26.4123 24.864 30.7999 21 30.7999C17.136 30.7999 14 26.4123 14 20.9999C14 15.5875 17.136 11.1999 21 11.1999ZM35 11.1999H39.2V15.3999C39.2 15.6768 39.1179 15.9475 38.9641 16.1777C38.8102 16.4079 38.5916 16.5874 38.3358 16.6933C38.0799 16.7993 37.7984 16.827 37.5269 16.773C37.2553 16.719 37.0058 16.5856 36.81 16.3899C36.6143 16.1941 36.4809 15.9446 36.4269 15.673C36.3729 15.4015 36.4006 15.12 36.5066 14.8641C36.6125 14.6083 36.792 14.3897 37.0222 14.2358C37.2524 14.082 37.5231 13.9999 37.8 13.9999L36.4 12.5999C36.4 12.8768 36.3179 13.1475 36.1641 13.3777C36.0102 13.6079 35.7916 13.7874 35.5358 13.8933C35.2799 13.9993 34.9984 14.027 34.7269 13.973C34.4553 13.919 34.2058 13.7856 34.01 13.5899C33.8143 13.3941 33.6809 13.1446 33.6269 12.873C33.5729 12.6015 33.6006 12.32 33.7066 12.0641C33.8125 11.8083 33.992 11.5897 34.2222 11.4358C34.4524 11.282 34.7231 11.1999 35 11.1999ZM21 15.3999C20.0956 15.3999 19.5048 15.7051 19.0904 16.0999H22.9096C22.4952 15.7051 21.9044 15.3999 21 15.3999ZM18.55 16.7999C18.424 17.0547 18.3764 17.2787 18.326 17.4999H23.674C23.6236 17.2787 23.5788 17.0547 23.45 16.7999H18.55ZM18.2 18.1999V18.8999H23.8V18.1999H18.2ZM18.2 19.5999V20.2999H23.8V19.5999H18.2ZM18.2 20.9999V21.6999H23.8V20.9999H18.2ZM18.2 22.3999L17.5 23.0999H23.1L23.8 22.3999H18.2ZM16.8 23.7999C16.8 23.7999 16.898 24.0855 17.0856 24.4999H23.45L22.4 23.7999H16.8ZM4.2 25.1999C4.5713 25.1999 4.9274 25.3474 5.18995 25.61C5.4525 25.8725 5.6 26.2286 5.6 26.5999C5.6 26.9712 5.4525 27.3273 5.18995 27.5899C4.9274 27.8524 4.5713 27.9999 4.2 27.9999L5.6 29.3999C5.6 29.123 5.68211 28.8523 5.83594 28.6221C5.98978 28.3919 6.20843 28.2124 6.46424 28.1065C6.72006 28.0005 7.00155 27.9728 7.27313 28.0268C7.5447 28.0808 7.79416 28.2142 7.98995 28.41C8.18574 28.6057 8.31908 28.8552 8.3731 29.1268C8.42712 29.3983 8.39939 29.6798 8.29343 29.9357C8.18747 30.1915 8.00803 30.4101 7.7778 30.564C7.54757 30.7178 7.27689 30.7999 7 30.7999H2.8V26.5999C2.8 26.2286 2.9475 25.8725 3.21005 25.61C3.4726 25.3474 3.8287 25.1999 4.2 25.1999ZM17.4664 25.1999C17.5952 25.4407 17.6792 25.6451 17.85 25.8999H24.2004C24.3852 25.5135 24.5 25.1999 24.5 25.1999H17.4664ZM37.8 25.1999C38.1713 25.1999 38.5274 25.3474 38.79 25.61C39.0525 25.8725 39.2 26.2286 39.2 26.5999V30.7999H35C34.7231 30.7999 34.4524 30.7178 34.2222 30.564C33.992 30.4101 33.8125 30.1915 33.7066 29.9357C33.6006 29.6798 33.5729 29.3983 33.6269 29.1268C33.6809 28.8552 33.8143 28.6057 34.01 28.41C34.2058 28.2142 34.4553 28.0808 34.7269 28.0268C34.9984 27.9728 35.2799 28.0005 35.5358 28.1065C35.7916 28.2124 36.0102 28.3919 36.1641 28.6221C36.3179 28.8523 36.4 29.123 36.4 29.3999L37.8 27.9999C37.4287 27.9999 37.0726 27.8524 36.81 27.5899C36.5475 27.3273 36.4 26.9712 36.4 26.5999C36.4 26.2286 36.5475 25.8725 36.81 25.61C37.0726 25.3474 37.4287 25.1999 37.8 25.1999ZM18.3848 26.5999C18.606 26.8547 18.8468 27.0927 19.1128 27.2999H23.0888C23.3688 27.0843 23.6152 26.8463 23.8 26.5999H18.3848Z" fill="#024132"/>
</g>
<defs>
<clipPath id="clip0_1844_28550">
<rect width="42" height="42" fill="white"/>
</clipPath>
</defs>
</svg>
