<svg width="42" height="42" viewBox="0 0 42 42" fill="none" xmlns="http://www.w3.org/2000/svg">
<g clip-path="url(#clip0_1844_28562)">
<path d="M37.5 1.5H4.5C2.84315 1.5 1.5 2.84315 1.5 4.5V33C1.5 34.6569 2.84315 36 4.5 36H37.5C39.1569 36 40.5 34.6569 40.5 33V4.5C40.5 2.84315 39.1569 1.5 37.5 1.5Z" stroke="#024132" stroke-width="3" stroke-linecap="round" stroke-linejoin="round"/>
<path d="M25.5 24C28.3995 24 30.75 21.6495 30.75 18.75C30.75 15.8505 28.3995 13.5 25.5 13.5C22.6005 13.5 20.25 15.8505 20.25 18.75C20.25 21.6495 22.6005 24 25.5 24Z" stroke="#024132" stroke-width="3" stroke-linecap="round" stroke-linejoin="round"/>
<path d="M25.5 9.75V13.5M25.5 24V27.75M34.5 18.75H30.75M20.25 18.75H16.5M31.86 12.39L29.22 15.03M21.78 22.47L19.14 25.11M31.86 25.11L29.22 22.47M21.78 15.03L19.14 12.39M9 13.5V24M6 36V40.5M34.5 36V40.5" stroke="#024132" stroke-width="3" stroke-linecap="round" stroke-linejoin="round"/>
</g>
<defs>
<clipPath id="clip0_1844_28562">
<rect width="42" height="42" fill="white"/>
</clipPath>
</defs>
</svg>
